<svg width="36" height="40" viewBox="0 0 36 40" fill="none" xmlns="http://www.w3.org/2000/svg">
<mask id="path-1-outside-1_16_2" maskUnits="userSpaceOnUse" x="0" y="9.32022" width="36" height="30" fill="black">
<rect fill="white" y="9.32022" width="36" height="30"/>
<path fill-rule="evenodd" clip-rule="evenodd" d="M30.9056 10.648C30.5567 10.2167 29.9113 10.2198 29.5125 10.6055C29.1304 10.9749 29.0935 11.5821 29.4245 11.998C31.4388 14.529 32.6423 17.734 32.6423 21.2201C32.6423 29.4056 26.0067 36.0412 17.8212 36.0412C9.63566 36.0412 3 29.4056 3 21.2201C3 17.734 4.20356 14.529 6.21782 11.998C6.54878 11.5821 6.5119 10.9749 6.12981 10.6055C5.73098 10.2198 5.08564 10.2167 4.73671 10.648C2.39974 13.5368 1 17.215 1 21.2201C1 30.5101 8.53109 38.0412 17.8212 38.0412C27.1112 38.0412 34.6423 30.5101 34.6423 21.2201C34.6423 17.215 33.2426 13.5368 30.9056 10.648Z"/>
</mask>
<path fill-rule="evenodd" clip-rule="evenodd" d="M30.9056 10.648C30.5567 10.2167 29.9113 10.2198 29.5125 10.6055C29.1304 10.9749 29.0935 11.5821 29.4245 11.998C31.4388 14.529 32.6423 17.734 32.6423 21.2201C32.6423 29.4056 26.0067 36.0412 17.8212 36.0412C9.63566 36.0412 3 29.4056 3 21.2201C3 17.734 4.20356 14.529 6.21782 11.998C6.54878 11.5821 6.5119 10.9749 6.12981 10.6055C5.73098 10.2198 5.08564 10.2167 4.73671 10.648C2.39974 13.5368 1 17.215 1 21.2201C1 30.5101 8.53109 38.0412 17.8212 38.0412C27.1112 38.0412 34.6423 30.5101 34.6423 21.2201C34.6423 17.215 33.2426 13.5368 30.9056 10.648Z" fill="#1B1918"/>
<path d="M29.4245 11.998L28.642 12.6207L29.4245 11.998ZM30.9056 10.648L30.1282 11.277L30.9056 10.648ZM33.6423 21.2201C33.6423 17.4998 32.357 14.0769 30.207 11.3753L28.642 12.6207C30.5205 14.9811 31.6423 17.9682 31.6423 21.2201H33.6423ZM17.8212 37.0412C26.5589 37.0412 33.6423 29.9578 33.6423 21.2201H31.6423C31.6423 28.8533 25.4544 35.0412 17.8212 35.0412V37.0412ZM2 21.2201C2 29.9578 9.08337 37.0412 17.8212 37.0412V35.0412C10.1879 35.0412 4 28.8533 4 21.2201H2ZM5.43536 11.3753C3.28532 14.0769 2 17.4998 2 21.2201H4C4 17.9682 5.1218 14.9811 7.00028 12.6207L5.43536 11.3753ZM3.95927 10.0191C1.48355 13.0793 0 16.9778 0 21.2201H2C2 17.4521 3.31593 13.9942 5.51416 11.277L3.95927 10.0191ZM0 21.2201C0 31.0624 7.97881 39.0412 17.8212 39.0412V37.0412C9.08337 37.0412 2 29.9578 2 21.2201H0ZM17.8212 39.0412C27.6635 39.0412 35.6423 31.0624 35.6423 21.2201H33.6423C33.6423 29.9578 26.5589 37.0412 17.8212 37.0412V39.0412ZM35.6423 21.2201C35.6423 16.9778 34.1588 13.0793 31.6831 10.0191L30.1282 11.277C32.3264 13.9942 33.6423 17.4521 33.6423 21.2201H35.6423ZM6.82492 9.88656C6.06425 9.15106 4.72819 9.06862 3.95927 10.0191L5.51416 11.277C5.50455 11.2889 5.48896 11.3017 5.47028 11.3105C5.45303 11.3186 5.43995 11.3201 5.4339 11.3202C5.42473 11.3204 5.42806 11.3179 5.43469 11.3244L6.82492 9.88656ZM28.8174 9.88656C28.0617 10.6173 27.9933 11.8056 28.642 12.6207L30.207 11.3753C30.2025 11.3697 30.1983 11.3606 30.1992 11.3467C30.2 11.3331 30.2048 11.3271 30.2076 11.3244L28.8174 9.88656ZM7.00028 12.6207C7.64898 11.8056 7.58066 10.6173 6.82492 9.88656L5.43469 11.3244C5.43752 11.3271 5.4423 11.3331 5.44315 11.3467C5.44402 11.3606 5.43984 11.3697 5.43536 11.3753L7.00028 12.6207ZM30.2076 11.3244C30.2143 11.3179 30.2176 11.3204 30.2084 11.3202C30.2024 11.3201 30.1893 11.3186 30.172 11.3105C30.1534 11.3017 30.1378 11.2889 30.1282 11.277L31.6831 10.0191C30.9141 9.06862 29.5781 9.15106 28.8174 9.88656L30.2076 11.3244Z" fill="#1B1918" mask="url(#path-1-outside-1_16_2)"/>
<mask id="path-3-outside-2_16_2" maskUnits="userSpaceOnUse" x="10.7085" y="-0.535271" width="14" height="12" fill="black">
<rect fill="white" x="10.7085" y="-0.535271" width="14" height="12"/>
<path fill-rule="evenodd" clip-rule="evenodd" d="M12.9203 10.151C13.1898 10.5549 13.7557 10.5495 14.1341 10.2452C14.567 9.89705 14.6667 9.22665 14.4018 8.73837C14.1033 8.18802 13.9337 7.55751 13.9337 6.8874C13.9337 4.74045 15.6741 3 17.8211 3C19.968 3 21.7085 4.74045 21.7085 6.8874C21.7085 7.55751 21.5389 8.18803 21.2404 8.73837C20.9755 9.22665 21.0752 9.89705 21.5081 10.2452C21.8865 10.5495 22.4524 10.5549 22.7219 10.151C23.3452 9.21694 23.7085 8.0946 23.7085 6.8874C23.7085 3.63588 21.0726 1 17.8211 1C14.5696 1 11.9337 3.63588 11.9337 6.8874C11.9337 8.0946 12.297 9.21694 12.9203 10.151Z"/>
</mask>
<path fill-rule="evenodd" clip-rule="evenodd" d="M12.9203 10.151C13.1898 10.5549 13.7557 10.5495 14.1341 10.2452C14.567 9.89705 14.6667 9.22665 14.4018 8.73837C14.1033 8.18802 13.9337 7.55751 13.9337 6.8874C13.9337 4.74045 15.6741 3 17.8211 3C19.968 3 21.7085 4.74045 21.7085 6.8874C21.7085 7.55751 21.5389 8.18803 21.2404 8.73837C20.9755 9.22665 21.0752 9.89705 21.5081 10.2452C21.8865 10.5495 22.4524 10.5549 22.7219 10.151C23.3452 9.21694 23.7085 8.0946 23.7085 6.8874C23.7085 3.63588 21.0726 1 17.8211 1C14.5696 1 11.9337 3.63588 11.9337 6.8874C11.9337 8.0946 12.297 9.21694 12.9203 10.151Z" fill="#1B1918"/>
<path d="M12.9337 6.8874C12.9337 7.72816 13.1468 8.52212 13.5228 9.21521L15.2808 8.26154C15.0597 7.85393 14.9337 7.38687 14.9337 6.8874H12.9337ZM17.8211 2C15.1219 2 12.9337 4.18816 12.9337 6.8874H14.9337C14.9337 5.29273 16.2264 4 17.8211 4V2ZM22.7085 6.8874C22.7085 4.18816 20.5203 2 17.8211 2V4C19.4158 4 20.7085 5.29273 20.7085 6.8874H22.7085ZM22.1194 9.21521C22.4954 8.52212 22.7085 7.72816 22.7085 6.8874H20.7085C20.7085 7.38687 20.5825 7.85393 20.3614 8.26154L22.1194 9.21521ZM23.5537 10.7061C24.2832 9.61276 24.7085 8.29823 24.7085 6.8874H22.7085C22.7085 7.89098 22.4071 8.82112 21.89 9.59598L23.5537 10.7061ZM24.7085 6.8874C24.7085 3.08359 21.6249 -2.20086e-07 17.8211 -2.20086e-07V2C20.5203 2 22.7085 4.18816 22.7085 6.8874H24.7085ZM17.8211 -2.20086e-07C14.0173 -2.20086e-07 10.9337 3.08359 10.9337 6.8874H12.9337C12.9337 4.18816 15.1219 2 17.8211 2V-2.20086e-07ZM10.9337 6.8874C10.9337 8.29823 11.359 9.61276 12.0885 10.7061L13.7521 9.59598C13.2351 8.82112 12.9337 7.89098 12.9337 6.8874H10.9337ZM20.8814 11.0244C21.5522 11.5639 22.8511 11.7591 23.5537 10.7061L21.89 9.59598C21.9155 9.55779 21.9547 9.52127 22.002 9.49609C22.0467 9.47231 22.0844 9.466 22.106 9.46492C22.1415 9.46315 22.1435 9.47296 22.1348 9.46595L20.8814 11.0244ZM14.7608 11.0244C15.6113 10.3404 15.7499 9.12626 15.2808 8.26154L13.5228 9.21521C13.5409 9.24853 13.5551 9.30942 13.5435 9.37792C13.5383 9.40909 13.5291 9.43247 13.5208 9.44742C13.5168 9.45463 13.5134 9.45932 13.5111 9.46206C13.5089 9.46472 13.5076 9.46578 13.5074 9.46594L14.7608 11.0244ZM20.3614 8.26154C19.8923 9.12626 20.0309 10.3404 20.8814 11.0244L22.1348 9.46595C22.1346 9.46578 22.1333 9.46472 22.1311 9.46206C22.1288 9.45932 22.1254 9.45463 22.1214 9.44742C22.1131 9.43247 22.1039 9.40909 22.0986 9.37793C22.0871 9.30943 22.1013 9.24853 22.1194 9.21521L20.3614 8.26154ZM13.5074 9.46594C13.4987 9.47296 13.5007 9.46315 13.5362 9.46492C13.5578 9.466 13.5955 9.47231 13.6402 9.49609C13.6875 9.52127 13.7267 9.55779 13.7521 9.59598L12.0885 10.7061C12.7911 11.7591 14.09 11.5639 14.7608 11.0244L13.5074 9.46594Z" fill="black" mask="url(#path-3-outside-2_16_2)"/>
</svg>
